<?xml version="1.0" standalone="no"?>
<!DOCTYPE svg PUBLIC "-//W3C//DTD SVG 20010904//EN"
 "http://www.w3.org/TR/2001/REC-SVG-20010904/DTD/svg10.dtd">
<svg version="1.0" xmlns="http://www.w3.org/2000/svg"
 width="576.000000pt" height="576.000000pt" viewBox="0 0 576.000000 576.000000"
 preserveAspectRatio="xMidYMid meet">
<metadata>
Created by potrace 1.11, written by Peter Selinger 2001-2013
</metadata>
<g transform="translate(0.000000,576.000000) scale(0.100000,-0.100000)"
fill="#000000" stroke="none">
<path d="M3715 4993 c99 -101 177 -183 173 -183 -4 0 -38 20 -75 44 -134 86
-283 149 -438 182 -150 33 -422 38 -547 10 -12 -3 -34 -8 -48 -10 -136 -26
-326 -105 -448 -187 -24 -16 -47 -27 -51 -25 -4 3 -13 0 -21 -6 -12 -8 -12 -9
3 -4 24 8 21 1 -9 -19 -15 -9 -23 -11 -19 -4 5 8 4 10 -3 5 -7 -4 -12 -14 -12
-23 0 -9 -2 -14 -5 -11 -3 3 -24 -12 -46 -33 -23 -22 -51 -39 -63 -39 -18 0
-23 -5 -22 -22 1 -18 9 -24 41 -29 22 -4 89 -31 147 -61 59 -29 216 -107 348
-173 179 -89 240 -124 240 -137 0 -10 4 -18 8 -18 16 0 13 -90 -3 -114 -14
-22 -14 -25 1 -40 9 -9 14 -22 11 -30 -3 -7 -1 -19 3 -27 5 -8 5 -19 -1 -26
-17 -19 -7 -58 14 -55 10 2 17 -3 17 -13 0 -9 9 -33 20 -54 17 -34 17 -40 4
-45 -20 -8 -8 -26 17 -26 10 0 19 -4 19 -9 0 -6 11 -22 24 -36 14 -15 26 -36
28 -48 2 -15 11 -22 25 -23 14 -1 87 -67 207 -188 175 -175 194 -201 186 -241
-1 -5 4 -5 11 2 14 14 43 2 75 -33 12 -12 24 -20 27 -17 3 3 21 -4 39 -15 56
-35 148 -60 223 -61 28 -1 36 -4 26 -10 -8 -5 -20 -7 -27 -4 -17 6 -29 -18
-13 -27 8 -5 17 -3 23 5 10 11 31 18 91 29 11 3 28 7 38 11 9 4 17 3 17 -3 0
-5 9 -9 19 -8 30 2 221 -190 221 -221 0 -29 -46 -72 -76 -73 -12 0 -22 -6 -21
-12 1 -41 -4 -57 -17 -52 -21 8 -32 -17 -12 -28 20 -11 22 -58 1 -58 -22 0
-18 -21 5 -27 21 -5 22 -8 24 -45 1 -16 8 -22 28 -22 37 -2 168 -137 168 -173
0 -13 5 -23 13 -22 35 4 55 -2 53 -19 0 -9 6 -17 14 -17 8 0 14 5 13 11 -3 16
48 14 54 -2 8 -21 36 -17 31 4 -5 17 1 20 50 24 6 1 13 6 13 12 1 6 2 17 3 23
0 7 165 177 366 378 266 266 371 365 387 365 18 0 23 6 24 28 1 15 1 30 1 33
-1 4 8 5 18 2 14 -4 20 0 20 11 0 9 -7 16 -15 16 -10 0 -15 10 -15 30 0 18 5
29 12 28 6 -2 14 6 16 16 3 14 0 18 -15 14 -15 -4 -19 1 -21 25 -3 39 -8 46
-30 41 -26 -7 -177 148 -169 175 4 16 0 21 -16 21 -47 0 -54 3 -49 22 3 12 -1
18 -12 18 -9 0 -16 -6 -16 -14 0 -19 -41 -17 -56 3 -12 16 -34 7 -34 -15 0
-12 -26 -19 -52 -15 -5 0 -8 -10 -8 -23 0 -29 -46 -76 -74 -76 -15 0 -57 36
-125 105 -84 85 -101 107 -92 119 9 11 9 15 -1 18 -10 4 -11 13 -2 46 6 23 8
42 4 42 -4 0 -7 24 -8 53 0 67 -27 170 -58 226 -30 55 -30 60 1 31 14 -13 25
-29 25 -37 0 -7 7 -13 15 -13 8 0 15 7 15 15 0 8 -6 15 -13 15 -22 0 -117 104
-117 128 0 16 -6 22 -22 22 -31 0 -368 336 -368 366 0 17 -7 24 -25 26 -18 2
-100 76 -268 243 -133 132 -161 158 -62 58z m200 -203 c10 -11 16 -20 13 -20
-3 0 -13 9 -23 20 -10 11 -16 20 -13 20 3 0 13 -9 23 -20z"/>
<path d="M2580 5140 c-9 -6 -10 -10 -3 -10 6 0 15 5 18 10 8 12 4 12 -15 0z"/>
<path d="M2517 5075 c-15 -14 -24 -25 -19 -25 5 0 19 11 32 25 30 32 23 32
-13 0z"/>
<path d="M2475 5030 c-4 -6 -11 -8 -16 -5 -5 4 -9 1 -9 -4 0 -16 16 -13 30 4
7 8 10 15 7 15 -3 0 -9 -5 -12 -10z"/>
<path d="M2395 4960 c-10 -11 -16 -20 -13 -20 3 0 15 9 28 20 13 11 19 20 13
20 -5 0 -18 -9 -28 -20z"/>
<path d="M2334 4894 c-18 -14 -18 -15 4 -4 12 6 22 13 22 15 0 8 -5 6 -26 -11z"/>
<path d="M4609 3948 c0 -2 -2 -21 -4 -43 l-3 -40 17 35 c18 35 18 50 0 50 -5
0 -9 -1 -10 -2z"/>
<path d="M2746 3663 c-3 -4 -6 -15 -6 -25 0 -10 -8 -26 -18 -35 -10 -10 -43
-41 -73 -68 -100 -93 -223 -208 -304 -284 -94 -88 -341 -319 -435 -406 -35
-33 -76 -71 -91 -85 -14 -14 -82 -77 -150 -140 -68 -63 -160 -149 -204 -190
-99 -94 -223 -210 -245 -230 -9 -8 -72 -67 -140 -131 -69 -64 -141 -131 -160
-149 -158 -147 -276 -258 -289 -272 -9 -10 -28 -18 -43 -18 -23 0 -28 -4 -28
-23 0 -13 -11 -34 -25 -47 -14 -13 -23 -25 -20 -28 2 -2 -6 -19 -18 -36 -55
-75 -78 -159 -78 -276 1 -52 3 -104 5 -115 8 -37 37 -109 56 -143 11 -18 16
-30 10 -27 -6 3 -7 -1 -4 -9 3 -9 10 -13 15 -10 5 3 9 0 9 -6 0 -6 9 -20 20
-32 11 -12 19 -27 19 -32 -3 -25 2 -31 28 -33 16 -1 37 -13 51 -30 13 -15 21
-23 18 -16 -4 7 13 1 36 -12 77 -45 161 -65 268 -65 60 0 113 6 139 15 23 8
43 15 46 15 18 3 84 35 100 48 19 16 19 16 5 -3 -8 -11 6 -1 30 23 26 25 52
42 67 42 19 0 23 5 23 28 0 15 8 34 18 43 16 14 227 239 262 279 8 9 69 75
135 145 66 70 131 139 144 154 25 27 254 272 306 327 17 17 54 58 84 90 131
143 190 202 196 196 4 -4 5 -2 3 4 -3 9 74 95 254 285 23 25 93 99 153 164 61
65 124 132 140 150 17 17 68 72 114 123 46 50 88 89 92 86 5 -3 8 -1 7 4 -6
18 80 102 104 102 19 0 24 5 24 25 0 19 -5 25 -23 25 -13 0 -23 5 -23 11 0 5
-4 8 -8 5 -11 -6 -42 30 -42 48 0 7 -12 16 -27 19 -40 8 -406 378 -397 401 4
10 1 16 -9 16 -9 0 -23 7 -31 16 -9 8 -16 12 -16 7 0 -4 -7 5 -15 21 -8 15
-15 36 -15 45 0 16 -32 26 -44 14z"/>
<path d="M1676 3602 c-3 -5 1 -9 9 -9 8 0 12 4 9 9 -3 4 -7 8 -9 8 -2 0 -6 -4
-9 -8z"/>
<path d="M3566 3207 c3 -10 9 -15 12 -12 3 3 0 11 -7 18 -10 9 -11 8 -5 -6z"/>
<path d="M3590 3171 c0 -12 6 -21 16 -21 9 0 14 7 12 17 -5 25 -28 28 -28 4z"/>
<path d="M4066 2158 c3 -5 10 -6 15 -3 13 9 11 12 -6 12 -8 0 -12 -4 -9 -9z"/>
<path d="M486 1515 c-11 -8 -17 -17 -14 -20 2 -3 13 4 23 15 21 23 18 25 -9 5z"/>
<path d="M415 1451 c-21 -22 -43 -39 -49 -38 -6 1 -11 -4 -11 -10 0 -22 13
-14 61 37 55 59 55 67 -1 11z"/>
<path d="M345 1060 c-3 -6 2 -13 12 -17 10 -3 21 -8 25 -10 3 -1 4 6 1 17 -6
21 -28 27 -38 10z"/>
<path d="M390 1016 c0 -2 7 -7 16 -10 8 -3 12 -2 9 4 -6 10 -25 14 -25 6z"/>
<path d="M427 979 c7 -7 15 -10 18 -7 3 3 -2 9 -12 12 -14 6 -15 5 -6 -5z"/>
<path d="M1675 881 c-3 -5 -2 -12 3 -15 5 -3 9 1 9 9 0 17 -3 19 -12 6z"/>
<path d="M660 746 c0 -3 9 -10 20 -16 11 -6 20 -8 20 -6 0 3 -9 10 -20 16 -11
6 -20 8 -20 6z"/>
<path d="M1180 695 c-24 -24 -47 -42 -51 -40 -9 6 -20 -21 -12 -29 10 -10 23
-7 23 6 0 7 21 34 47 60 26 26 45 48 42 48 -3 0 -25 -20 -49 -45z"/>
<path d="M771 628 c11 -20 29 -15 29 7 0 8 -9 13 -19 12 -16 -1 -18 -5 -10
-19z"/>
</g>
</svg>
